<svg width="74" height="62" viewBox="0 0 74 62" fill="none" xmlns="http://www.w3.org/2000/svg">
<g id="camera">
<path id="Vector" d="M62 61.2082H12C8.96108 61.2082 6.04661 60.001 3.89775 57.8521C1.7489 55.7032 0.541687 52.7888 0.541687 49.7498V24.7498C0.541687 21.7109 1.7489 18.7964 3.89775 16.6476C6.04661 14.4987 8.96108 13.2915 12 13.2915H14.5L19.4167 5.99984C20.4686 4.43532 21.889 3.15342 23.5529 2.26699C25.2168 1.38056 27.0731 0.916787 28.9584 0.916504H45.0417C46.927 0.916787 48.7832 1.38056 50.4471 2.26699C52.111 3.15342 53.5314 4.43532 54.5834 5.99984L59.5 13.2915H62C65.039 13.2915 67.9534 14.4987 70.1023 16.6476C72.2511 18.7964 73.4584 21.7109 73.4584 24.7498V49.7498C73.4584 52.7888 72.2511 55.7032 70.1023 57.8521C67.9534 60.001 65.039 61.2082 62 61.2082ZM12 19.5415C10.6187 19.5415 9.29393 20.0902 8.31717 21.067C7.34042 22.0437 6.79169 23.3685 6.79169 24.7498V49.7498C6.79169 51.1312 7.34042 52.4559 8.31717 53.4327C9.29393 54.4094 10.6187 54.9582 12 54.9582H62C63.3814 54.9582 64.7061 54.4094 65.6829 53.4327C66.6596 52.4559 67.2084 51.1312 67.2084 49.7498V24.7498C67.2084 23.3685 66.6596 22.0437 65.6829 21.067C64.7061 20.0902 63.3814 19.5415 62 19.5415H57.8334C57.3232 19.5406 56.8211 19.4148 56.3708 19.1751C55.9205 18.9354 55.5357 18.5891 55.25 18.1665L49.5 9.37484C49.0445 8.67937 48.4278 8.1041 47.7024 7.69789C46.9771 7.29167 46.1644 7.0665 45.3334 7.0415H28.9584C28.1273 7.0665 27.3146 7.29167 26.5893 7.69789C25.8639 8.1041 25.2472 8.67937 24.7917 9.37484L18.75 18.1665C18.4644 18.5891 18.0796 18.9354 17.6293 19.1751C17.1789 19.4148 16.6768 19.5406 16.1667 19.5415H12Z" fill="#797979"/>
<path id="Vector_2" d="M37 48.7083C34.3218 48.7083 31.7036 47.9141 29.4767 46.4262C27.2498 44.9382 25.5141 42.8233 24.4892 40.3488C23.4642 37.8744 23.1961 35.1516 23.7186 32.5248C24.2411 29.898 25.5308 27.4851 27.4246 25.5913C29.3185 23.6974 31.7314 22.4077 34.3582 21.8852C36.985 21.3627 39.7078 21.6309 42.1822 22.6558C44.6566 23.6807 46.7716 25.4164 48.2595 27.6433C49.7475 29.8702 50.5417 32.4884 50.5417 35.1667C50.5307 38.7548 49.1005 42.1928 46.5633 44.7299C44.0261 47.2671 40.5881 48.6973 37 48.7083ZM37 27.875C35.5579 27.875 34.1481 28.3027 32.949 29.1039C31.7499 29.9051 30.8153 31.0439 30.2634 32.3763C29.7115 33.7087 29.5671 35.1748 29.8485 36.5892C30.1298 38.0036 30.8243 39.3029 31.8441 40.3227C32.8638 41.3424 34.1631 42.0369 35.5775 42.3182C36.992 42.5996 38.4581 42.4552 39.7904 41.9033C41.1228 41.3514 42.2616 40.4168 43.0628 39.2177C43.8641 38.0186 44.2917 36.6088 44.2917 35.1667C44.2808 33.2362 43.509 31.3879 42.1439 30.0228C40.7789 28.6577 38.9305 27.8859 37 27.875Z" fill="#797979"/>
</g>
</svg>
