<svg width="24" height="24" viewBox="0 0 24 24" fill="none" xmlns="http://www.w3.org/2000/svg">
<g id="Frame 211">
<path id="Shape (Stroke)" fill-rule="evenodd" clip-rule="evenodd" d="M11.3325 1.89792C11.3323 1.89801 11.3327 1.89782 11.3325 1.89792L3.33359 5.89736L3.33249 5.89792C2.82282 6.15117 2.50039 6.67105 2.49999 7.24015V16.7636C2.49602 17.3335 2.81535 17.8564 3.3241 18.1132C3.32381 18.113 3.32439 18.1133 3.3241 18.1132L11.3236 22.1129C11.7461 22.3244 12.2437 22.3244 12.6662 22.113L20.6664 18.1129L20.6675 18.1124C21.1772 17.8591 21.4997 17.3391 21.5 16.7699V7.24042C21.4997 6.67121 21.1772 6.15121 20.6675 5.89792L20.6664 5.89736L12.6675 1.89792C12.6673 1.89782 12.6677 1.89801 12.6675 1.89792C12.2473 1.68935 11.7527 1.68934 11.3325 1.89792ZM10.8875 1.00238C11.5883 0.654153 12.4117 0.654153 13.1125 1.00238L13.1136 1.00293L21.1125 5.00238C21.1123 5.0023 21.1126 5.00247 21.1125 5.00238C21.9618 5.42464 22.4995 6.29138 22.5 7.23988V16.7701C22.4995 17.7186 21.9623 18.5853 21.1131 19.0076C21.1129 19.0077 21.1134 19.0075 21.1131 19.0076L13.1137 23.0073C13.1137 23.0073 13.1138 23.0073 13.1137 23.0073C12.4096 23.3596 11.5805 23.3597 10.8764 23.0074C10.8763 23.0073 10.8764 23.0074 10.8764 23.0074L2.87638 19.0074L2.875 19.0067C2.02679 18.5793 1.49407 17.7082 1.49999 16.7585V7.24015C1.50049 6.29169 2.03766 5.42496 2.88689 5.00268C2.88669 5.00278 2.88709 5.00258 2.88689 5.00268L10.8864 1.00294L10.8875 1.00238Z" fill="#414141"/>
<path id="Shape (Stroke)_2" fill-rule="evenodd" clip-rule="evenodd" d="M1.87278 5.93617C1.99628 5.68918 2.29661 5.58907 2.5436 5.71256L12 10.4408L21.4564 5.71256C21.7034 5.58907 22.0037 5.68918 22.1272 5.93617C22.2507 6.18316 22.1506 6.4835 21.9036 6.60699L12.2236 11.447C12.0828 11.5174 11.9172 11.5174 11.7764 11.447L2.09639 6.60699C1.8494 6.4835 1.74929 6.18316 1.87278 5.93617Z" fill="#414141"/>
<path id="Shape (Stroke)_3" fill-rule="evenodd" clip-rule="evenodd" d="M12 10.5C12.2761 10.5 12.5 10.7239 12.5 11V22.76C12.5 23.0361 12.2761 23.26 12 23.26C11.7239 23.26 11.5 23.0361 11.5 22.76V11C11.5 10.7239 11.7239 10.5 12 10.5Z" fill="#414141"/>
<path id="Shape (Stroke)_4" fill-rule="evenodd" clip-rule="evenodd" d="M6.55277 3.2765C6.67627 3.02951 6.9766 2.9294 7.22359 3.0529L17.2236 8.0529C17.4706 8.17639 17.5707 8.47673 17.4472 8.72372C17.3237 8.97071 17.0234 9.07082 16.7764 8.94732L6.77638 3.94732C6.52939 3.82383 6.42928 3.52349 6.55277 3.2765Z" fill="#414141"/>
</g>
</svg>
