<svg width="24" height="24" viewBox="0 0 24 24" fill="none" xmlns="http://www.w3.org/2000/svg">
<g id="feather-icon / search">
<path id="Oval (Stroke)" fill-rule="evenodd" clip-rule="evenodd" d="M2.5 10.5C2.5 6.08172 6.08172 2.5 10.5 2.5C14.9183 2.5 18.5 6.08172 18.5 10.5C18.5 14.9183 14.9183 18.5 10.5 18.5C6.08172 18.5 2.5 14.9183 2.5 10.5ZM10.5 3.5C6.63401 3.5 3.5 6.63401 3.5 10.5C3.5 14.366 6.63401 17.5 10.5 17.5C14.366 17.5 17.5 14.366 17.5 10.5C17.5 6.63401 14.366 3.5 10.5 3.5Z" fill="#0C7F8E"/>
<path id="Shape (Stroke)" fill-rule="evenodd" clip-rule="evenodd" d="M15.4465 15.4463C15.6418 15.251 15.9583 15.251 16.1536 15.4463L21.3536 20.6463C21.5489 20.8415 21.5489 21.1581 21.3536 21.3534C21.1583 21.5486 20.8418 21.5486 20.6465 21.3534L15.4465 16.1534C15.2512 15.9581 15.2512 15.6415 15.4465 15.4463Z" fill="#0C7F8E"/>
</g>
</svg>
